<?xml version="1.0" encoding="utf-8"?>
<!-- Generator: Adobe Illustrator 18.1.0, SVG Export Plug-In . SVG Version: 6.00 Build 0)  -->
<svg version="1.1" id="Слой_1" xmlns="http://www.w3.org/2000/svg" xmlns:xlink="http://www.w3.org/1999/xlink" x="0px" y="0px"
	 viewBox="0 0 131.6 62" enable-background="new 0 0 131.6 62" xml:space="preserve">
<g>
	<path fill="#515E66" d="M95,41.8H45.6c-3.1,0-5.6-2.5-5.6-5.6V5.6c0-3.1,2.5-5.6,5.6-5.6H95c3.1,0,5.6,2.5,5.6,5.6v30.7
		C100.6,39.3,98.1,41.8,95,41.8z M45.6,1c-2.5,0-4.6,2.1-4.6,4.6v30.7c0,2.5,2.1,4.6,4.6,4.6H95c2.5,0,4.6-2.1,4.6-4.6V5.6
		C99.6,3.1,97.5,1,95,1H45.6z"/>
</g>
<g>
	<polygon fill="#515E66" points="62.3,55.8 54.7,55.8 54.7,41.3 55.7,41.3 55.7,54.8 62.3,54.8 	"/>
</g>
<g>
	<rect x="77.2" y="54.8" fill="#515E66" width="30.5" height="1"/>
</g>
<g>
	<polygon fill="#515E66" points="131.6,55.8 119.5,55.8 119.5,54.8 130.6,54.8 130.6,41.4 118.6,16.3 100.1,16.3 100.1,15.3 
		119.3,15.3 131.6,41.3 	"/>
</g>
<g>
	<path fill="#515E66" d="M127.5,40.3h-21.8V20.4h12.7L127.5,40.3z M106.7,39.3H126l-8.2-17.9h-11V39.3z"/>
</g>
<g>
	<rect x="4.7" y="30.9" fill="#515E66" width="27.3" height="2"/>
</g>
<g>
	<rect y="44.1" fill="#515E66" width="27.3" height="2"/>
</g>
<g>
	<rect x="14.3" y="37.8" fill="#515E66" width="21.8" height="1.8"/>
</g>
<g>
	<path fill="#515E66" d="M71.4,37.5L52.7,6.3l7.4,0.3l11.3,18.8l5-11.5l-2.1-0.3l-4,7.2l-2.8-5.1l0.8-2.9h-2.5l-2.9-5.8L85.1,9
		L71.4,37.5z M54.6,7.4l16.8,28L83.5,9.9L64.6,8.3l1.8,3.7h3.2l-1.1,3.8l1.8,3.2l3.4-6.3l4.1,0.5l-6.3,14.5l-12-20L54.6,7.4z"/>
</g>
<g>
	<circle fill="#FFFFFF" cx="70.3" cy="53.6" r="7.9"/>
	<path fill="#515E66" d="M70.3,62c-4.7,0-8.5-3.8-8.5-8.5s3.8-8.5,8.5-8.5c4.7,0,8.5,3.8,8.5,8.5S74.9,62,70.3,62z M70.3,46.2
		c-4.1,0-7.4,3.3-7.4,7.4s3.3,7.4,7.4,7.4c4.1,0,7.4-3.3,7.4-7.4S74.3,46.2,70.3,46.2z"/>
</g>
<g>
	<circle fill="#FFFFFF" cx="115.6" cy="53.6" r="7.9"/>
	<path fill="#515E66" d="M115.6,62c-4.7,0-8.5-3.8-8.5-8.5s3.8-8.5,8.5-8.5s8.5,3.8,8.5,8.5S120.2,62,115.6,62z M115.6,46.2
		c-4.1,0-7.4,3.3-7.4,7.4s3.3,7.4,7.4,7.4s7.4-3.3,7.4-7.4S119.6,46.2,115.6,46.2z"/>
</g>
<g>
	<circle fill="#FFFFFF" cx="70.4" cy="53.6" r="4.5"/>
	<path fill="#515E66" d="M70.4,58.4c-2.6,0-4.8-2.1-4.8-4.8c0-2.6,2.1-4.8,4.8-4.8c2.6,0,4.8,2.1,4.8,4.8
		C75.2,56.3,73,58.4,70.4,58.4z M70.4,49.5c-2.3,0-4.2,1.9-4.2,4.2c0,2.3,1.9,4.2,4.2,4.2c2.3,0,4.2-1.9,4.2-4.2
		C74.5,51.4,72.7,49.5,70.4,49.5z"/>
</g>
<g>
	<circle fill="#FFFFFF" cx="115.7" cy="53.6" r="4.5"/>
	<path fill="#515E66" d="M115.7,58.4c-2.6,0-4.8-2.1-4.8-4.8c0-2.6,2.1-4.8,4.8-4.8c2.6,0,4.8,2.1,4.8,4.8
		C120.5,56.3,118.3,58.4,115.7,58.4z M115.7,49.5c-2.3,0-4.2,1.9-4.2,4.2c0,2.3,1.9,4.2,4.2,4.2c2.3,0,4.2-1.9,4.2-4.2
		C119.9,51.4,118,49.5,115.7,49.5z"/>
</g>
</svg>
