<?xml version="1.0" encoding="utf-8"?>
<!-- Generator: Adobe Illustrator 18.1.0, SVG Export Plug-In . SVG Version: 6.00 Build 0)  -->
<svg version="1.1" id="Слой_1" xmlns="http://www.w3.org/2000/svg" xmlns:xlink="http://www.w3.org/1999/xlink" x="0px" y="0px"
	 viewBox="0 0 123 80.7" enable-background="new 0 0 123 80.7" xml:space="preserve">
<g>
	<path fill="#515E66" d="M97.2,56.4c-0.1,0-0.2,0-0.3-0.1c-0.1-0.1-0.2-0.2-0.2-0.4v-3.9c0-0.2,0.1-0.3,0.3-0.4s0.4-0.1,0.5,0l4,2.5
		c0.2,0.1,0.3,0.3,0.2,0.5c0,0.2-0.1,0.4-0.3,0.4l-4,1.4C97.3,56.3,97.2,56.4,97.2,56.4z M97.7,52.8v2.3l2.4-0.9L97.7,52.8z"/>
</g>
<g>
	<path fill="#515E66" d="M24.2,56.4c-0.1,0-0.1,0-0.2,0l-4.2-1.4c-0.2-0.1-0.3-0.3-0.3-0.5c0-0.2,0.1-0.4,0.3-0.5l4.2-1.7
		c0.2-0.1,0.3,0,0.5,0c0.1,0.1,0.2,0.2,0.2,0.4v3.1c0,0.2-0.1,0.3-0.2,0.4C24.4,56.3,24.3,56.4,24.2,56.4z M21.4,54.4l2.2,0.8v-1.7
		L21.4,54.4z"/>
</g>
<g>
	<path fill="#515E66" d="M122.5,66.1h-21.3c-0.3,0-0.5-0.2-0.5-0.5s0.2-0.5,0.5-0.5h20.4l-4.5-6.9c-0.1-0.2-0.1-0.4,0-0.6l4.3-5.2
		H97.2c-0.3,0-0.5-0.2-0.5-0.5s0.2-0.5,0.5-0.5h25.3c0.2,0,0.4,0.1,0.5,0.3c0.1,0.2,0.1,0.4-0.1,0.5l-4.8,5.7l4.8,7.4
		c0.1,0.2,0.1,0.4,0,0.5C122.9,66,122.7,66.1,122.5,66.1z"/>
</g>
<g>
	<path fill="#515E66" d="M20,66.1H0.5c-0.2,0-0.4-0.1-0.4-0.3s-0.1-0.4,0-0.5L4.7,59l-3.8-6c-0.1-0.2-0.1-0.3,0-0.5
		c0.1-0.2,0.3-0.3,0.4-0.3h22.8c0.3,0,0.5,0.2,0.5,0.5s-0.2,0.5-0.5,0.5H2.2l3.5,5.5c0.1,0.2,0.1,0.4,0,0.6l-4.2,5.8H20
		c0.3,0,0.5,0.2,0.5,0.5S20.3,66.1,20,66.1z"/>
</g>
<g>
	<path fill="#515E66" d="M61.2,70.7c-12.4,0-23.4-7.4-27.9-19c-1.4-3.5-2.1-7.3-2.1-11.1c0-16.6,13.5-30.1,30.1-30.1
		c16.6,0,30.1,13.5,30.1,30.1c0,3.8-0.7,7.6-2.1,11.1C84.5,63.3,73.6,70.7,61.2,70.7z M61.2,11.5c-16,0-29.1,13.1-29.1,29.1
		c0,3.7,0.7,7.3,2,10.8c4.4,11.2,15.1,18.4,27.1,18.4c12,0,22.6-7.2,27.1-18.4c1.4-3.4,2-7,2-10.8C90.3,24.6,77.2,11.5,61.2,11.5z"
		/>
</g>
<g>
	<path fill="#515E66" d="M60.7,67.7c-0.3,0-0.7,0-1,0l0.1-1c0.3,0,0.7,0,1,0L60.7,67.7z M61.7,67.7l0-1c0.3,0,0.7,0,1,0l0.1,1
		C62.4,67.7,62,67.7,61.7,67.7z M58.6,67.6c-0.3,0-0.7-0.1-1-0.1l0.1-1c0.3,0,0.7,0.1,1,0.1L58.6,67.6z M63.7,67.6l-0.1-1
		c0.3,0,0.7-0.1,1-0.1l0.1,1C64.4,67.5,64.1,67.6,63.7,67.6z M56.6,67.3c-0.3-0.1-0.7-0.1-1-0.2l0.2-1c0.3,0.1,0.6,0.1,1,0.2
		L56.6,67.3z M65.8,67.3l-0.2-1c0.3-0.1,0.6-0.1,1-0.2l0.2,1C66.4,67.2,66.1,67.3,65.8,67.3z M54.6,66.9c-0.3-0.1-0.7-0.2-1-0.3
		l0.3-1c0.3,0.1,0.6,0.2,1,0.3L54.6,66.9z M67.8,66.9l-0.2-1c0.3-0.1,0.6-0.2,1-0.3l0.3,1C68.4,66.7,68.1,66.8,67.8,66.9z
		 M52.6,66.4c-0.3-0.1-0.6-0.2-1-0.3l0.4-0.9c0.3,0.1,0.6,0.2,0.9,0.3L52.6,66.4z M69.7,66.3l-0.3-0.9c0.3-0.1,0.6-0.2,0.9-0.3
		l0.4,0.9C70.4,66.1,70.1,66.2,69.7,66.3z M50.7,65.6c-0.3-0.1-0.6-0.3-0.9-0.4l0.4-0.9c0.3,0.1,0.6,0.3,0.9,0.4L50.7,65.6z
		 M71.7,65.6l-0.4-0.9c0.3-0.1,0.6-0.3,0.9-0.4l0.4,0.9C72.3,65.3,72,65.5,71.7,65.6z M48.8,64.8c-0.3-0.2-0.6-0.3-0.9-0.5l0.5-0.9
		c0.3,0.2,0.6,0.3,0.9,0.5L48.8,64.8z M73.5,64.8L73,63.9c0.3-0.2,0.6-0.3,0.9-0.5l0.5,0.9C74.1,64.4,73.8,64.6,73.5,64.8z M47,63.8
		c-0.3-0.2-0.6-0.4-0.9-0.6l0.6-0.8c0.3,0.2,0.6,0.4,0.8,0.5L47,63.8z M75.3,63.8l-0.5-0.9c0.3-0.2,0.6-0.3,0.8-0.5l0.6,0.8
		C75.9,63.4,75.6,63.6,75.3,63.8z M45.3,62.6c-0.3-0.2-0.6-0.4-0.8-0.6l0.6-0.8c0.3,0.2,0.5,0.4,0.8,0.6L45.3,62.6z M77,62.6
		l-0.6-0.8c0.3-0.2,0.5-0.4,0.8-0.6l0.6,0.8C77.5,62.2,77.3,62.4,77,62.6z M43.7,61.4c-0.3-0.2-0.5-0.4-0.8-0.7l0.7-0.7
		c0.2,0.2,0.5,0.4,0.7,0.6L43.7,61.4z M78.6,61.4L78,60.6c0.3-0.2,0.5-0.4,0.7-0.7l0.7,0.7C79.1,60.9,78.9,61.1,78.6,61.4z M42.2,60
		c-0.2-0.2-0.5-0.5-0.7-0.7l0.7-0.7c0.2,0.2,0.5,0.5,0.7,0.7L42.2,60z M80.1,60l-0.7-0.7c0.2-0.2,0.5-0.5,0.7-0.7l0.7,0.7
		C80.6,59.5,80.4,59.7,80.1,60z M40.8,58.5c-0.2-0.3-0.4-0.5-0.7-0.8l0.8-0.6c0.2,0.3,0.4,0.5,0.6,0.8L40.8,58.5z M81.5,58.5
		l-0.8-0.7c0.2-0.2,0.4-0.5,0.6-0.8l0.8,0.6C82,58,81.8,58.2,81.5,58.5z M39.5,56.9c-0.2-0.3-0.4-0.5-0.6-0.8l0.8-0.6
		c0.2,0.3,0.4,0.5,0.6,0.8L39.5,56.9z M82.8,56.9L82,56.3c0.2-0.3,0.4-0.5,0.6-0.8l0.8,0.6C83.2,56.3,83,56.6,82.8,56.9z M38.3,55.2
		c-0.2-0.3-0.4-0.6-0.5-0.9l0.9-0.5c0.2,0.3,0.3,0.6,0.5,0.8L38.3,55.2z M84,55.2l-0.8-0.5c0.2-0.3,0.3-0.6,0.5-0.8l0.9,0.5
		C84.4,54.6,84.2,54.9,84,55.2z M37.3,53.5c-0.2-0.3-0.3-0.6-0.5-0.9l0.9-0.4c0.1,0.3,0.3,0.6,0.5,0.9L37.3,53.5z M85,53.4L84.2,53
		c0.2-0.3,0.3-0.6,0.5-0.9l0.9,0.4C85.3,52.8,85.2,53.1,85,53.4z M36.4,51.6c-0.1-0.3-0.3-0.6-0.4-0.9l0.9-0.4
		c0.1,0.3,0.3,0.6,0.4,0.9L36.4,51.6z M85.9,51.6L85,51.2c0.1-0.3,0.3-0.6,0.4-0.9l0.9,0.4C86.2,51,86.1,51.3,85.9,51.6z M35.6,49.7
		c-0.1-0.3-0.2-0.6-0.3-1l1-0.3c0.1,0.3,0.2,0.6,0.3,0.9L35.6,49.7z M86.7,49.7l-0.9-0.3c0.1-0.3,0.2-0.6,0.3-0.9l1,0.3
		C86.9,49,86.8,49.4,86.7,49.7z M35,47.8c-0.1-0.3-0.2-0.7-0.3-1l1-0.2c0.1,0.3,0.2,0.6,0.2,1L35,47.8z M87.3,47.7l-1-0.3
		c0.1-0.3,0.2-0.6,0.2-1l1,0.2C87.5,47.1,87.4,47.4,87.3,47.7z M34.6,45.8c-0.1-0.3-0.1-0.7-0.2-1l1-0.2c0,0.3,0.1,0.7,0.2,1
		L34.6,45.8z M87.8,45.7l-1-0.2c0.1-0.3,0.1-0.6,0.2-1l1,0.2C87.9,45.1,87.8,45.4,87.8,45.7z M34.2,43.7c0-0.3-0.1-0.7-0.1-1l1-0.1
		c0,0.3,0.1,0.7,0.1,1L34.2,43.7z M88.1,43.7l-1-0.1c0-0.3,0.1-0.7,0.1-1l1,0.1C88.1,43,88.1,43.4,88.1,43.7z M34.1,41.7
		c0-0.3,0-0.7,0-1l1,0c0,0.3,0,0.7,0,1L34.1,41.7z M88.2,41.7l-1,0c0-0.3,0-0.7,0-1l1-0.1v0.1C88.2,41,88.2,41.3,88.2,41.7z
		 M35.1,39.7l-1,0c0-0.3,0-0.7,0.1-1l1,0.1C35.1,39,35.1,39.4,35.1,39.7z M87.2,39.6c0-0.3,0-0.7-0.1-1l1-0.1c0,0.3,0,0.7,0.1,1
		L87.2,39.6z M35.2,37.7l-1-0.1c0-0.3,0.1-0.7,0.1-1l1,0.1C35.3,37.1,35.3,37.4,35.2,37.7z M87.1,37.6c0-0.3-0.1-0.7-0.1-1l1-0.2
		c0.1,0.3,0.1,0.7,0.1,1L87.1,37.6z M35.5,35.8l-1-0.2c0.1-0.3,0.1-0.7,0.2-1l1,0.2C35.7,35.1,35.6,35.4,35.5,35.8z M86.8,35.7
		c-0.1-0.3-0.1-0.6-0.2-1l1-0.2c0.1,0.3,0.1,0.7,0.2,1L86.8,35.7z M36,33.9l-1-0.3c0.1-0.3,0.2-0.7,0.3-1l1,0.3
		C36.1,33.2,36.1,33.5,36,33.9z M86.3,33.7c-0.1-0.3-0.2-0.6-0.3-0.9l1-0.3c0.1,0.3,0.2,0.7,0.3,1L86.3,33.7z M36.6,32l-0.9-0.3
		c0.1-0.3,0.2-0.6,0.4-1l0.9,0.4C36.8,31.3,36.7,31.7,36.6,32z M85.7,31.9c-0.1-0.3-0.2-0.6-0.4-0.9l0.9-0.4c0.1,0.3,0.2,0.6,0.4,1
		L85.7,31.9z M37.3,30.1l-0.9-0.4c0.1-0.3,0.3-0.6,0.4-0.9l0.9,0.4C37.6,29.5,37.4,29.8,37.3,30.1z M85,30c-0.1-0.3-0.3-0.6-0.4-0.9
		l0.9-0.4c0.2,0.3,0.3,0.6,0.4,0.9L85,30z M38.1,28.3l-0.9-0.5c0.2-0.3,0.3-0.6,0.5-0.9l0.9,0.5C38.5,27.8,38.3,28.1,38.1,28.3z
		 M84.1,28.3c-0.2-0.3-0.3-0.6-0.5-0.9l0.9-0.5c0.2,0.3,0.3,0.6,0.5,0.9L84.1,28.3z M39.1,26.6l-0.8-0.5c0.2-0.3,0.4-0.6,0.6-0.9
		l0.8,0.6C39.5,26.1,39.3,26.4,39.1,26.6z M83.1,26.6c-0.2-0.3-0.4-0.5-0.5-0.8l0.8-0.6c0.2,0.3,0.4,0.6,0.6,0.9L83.1,26.6z
		 M40.3,25l-0.8-0.6c0.2-0.3,0.4-0.5,0.6-0.8l0.8,0.6C40.7,24.5,40.5,24.8,40.3,25z M82,24.9c-0.2-0.3-0.4-0.5-0.6-0.8l0.8-0.6
		c0.2,0.3,0.4,0.5,0.6,0.8L82,24.9z M41.5,23.5l-0.8-0.7c0.2-0.3,0.5-0.5,0.7-0.8l0.7,0.7C42,23,41.7,23.2,41.5,23.5z M80.7,23.4
		c-0.2-0.2-0.4-0.5-0.7-0.7l0.7-0.7c0.2,0.2,0.5,0.5,0.7,0.8L80.7,23.4z M42.9,22l-0.7-0.7c0.2-0.2,0.5-0.5,0.7-0.7l0.7,0.7
		C43.3,21.6,43.1,21.8,42.9,22z M79.4,22c-0.2-0.2-0.5-0.5-0.7-0.7l0.7-0.7c0.3,0.2,0.5,0.5,0.7,0.7L79.4,22z M44.3,20.7L43.7,20
		c0.3-0.2,0.5-0.4,0.8-0.6l0.6,0.8C44.8,20.3,44.6,20.5,44.3,20.7z M77.9,20.7c-0.3-0.2-0.5-0.4-0.8-0.6l0.6-0.8
		c0.3,0.2,0.5,0.4,0.8,0.6L77.9,20.7z M45.9,19.5l-0.6-0.8c0.3-0.2,0.6-0.4,0.8-0.6l0.6,0.8C46.4,19.1,46.1,19.3,45.9,19.5z
		 M76.4,19.5c-0.3-0.2-0.5-0.4-0.8-0.6l0.6-0.8c0.3,0.2,0.6,0.4,0.8,0.6L76.4,19.5z M47.5,18.4L47,17.6c0.3-0.2,0.6-0.4,0.9-0.5
		l0.5,0.9C48.1,18.1,47.8,18.2,47.5,18.4z M74.7,18.4c-0.3-0.2-0.6-0.3-0.9-0.5l0.5-0.9c0.3,0.2,0.6,0.3,0.9,0.5L74.7,18.4z
		 M49.2,17.4l-0.5-0.9c0.3-0.2,0.6-0.3,0.9-0.5l0.4,0.9C49.8,17.1,49.5,17.3,49.2,17.4z M73,17.4c-0.3-0.1-0.6-0.3-0.9-0.4l0.4-0.9
		c0.3,0.1,0.6,0.3,0.9,0.4L73,17.4z M51,16.6l-0.4-0.9c0.3-0.1,0.6-0.3,0.9-0.4l0.4,0.9C51.6,16.4,51.3,16.5,51,16.6z M71.2,16.6
		c-0.3-0.1-0.6-0.2-0.9-0.4l0.3-0.9c0.3,0.1,0.6,0.2,1,0.4L71.2,16.6z M52.9,15.9L52.5,15c0.3-0.1,0.6-0.2,1-0.3l0.3,1
		C53.5,15.7,53.2,15.8,52.9,15.9z M69.3,15.9c-0.3-0.1-0.6-0.2-0.9-0.3l0.3-1c0.3,0.1,0.7,0.2,1,0.3L69.3,15.9z M54.7,15.4l-0.2-1
		c0.3-0.1,0.7-0.2,1-0.2l0.2,1C55.4,15.2,55.1,15.3,54.7,15.4z M67.5,15.3c-0.3-0.1-0.6-0.2-1-0.2l0.2-1c0.3,0.1,0.7,0.1,1,0.2
		L67.5,15.3z M56.7,14.9l-0.2-1c0.3-0.1,0.7-0.1,1-0.2l0.1,1C57.3,14.8,57,14.9,56.7,14.9z M65.5,14.9c-0.3-0.1-0.6-0.1-1-0.1l0.1-1
		c0.3,0,0.7,0.1,1,0.2L65.5,14.9z M58.6,14.7l-0.1-1c0.3,0,0.7-0.1,1-0.1l0.1,1C59.3,14.6,59,14.6,58.6,14.7z M63.6,14.7
		c-0.3,0-0.7-0.1-1-0.1l0.1-1c0.3,0,0.7,0,1,0.1L63.6,14.7z M60.6,14.6l0-1c0.2,0,0.4,0,0.6,0l0.5,0l0,1l-0.4,0
		C61,14.6,60.8,14.6,60.6,14.6z"/>
</g>
<g>
	<path fill="#515E66" d="M52.9,80.7l-4.8-10.1l-10.7,3.2l-0.3-11.2l-11.1-1.4l4.3-10.3L20.8,45l8.1-7.7l-6.4-9.2l10.6-3.7l-2.1-11
		l11.1,0.9l2.6-10.9l9.8,5.4L61.4,0l6.8,8.9L78,3.5l2.6,10.9l11.1-0.9l-2.1,11l10.6,3.7l-6.4,9.2l8.1,7.7l-9.6,5.8l4.3,10.3
		l-11.1,1.4l-0.3,11.2l-10.7-3.2l-4.8,10.1l-8.5-7.3L52.9,80.7z M61.4,72.1l8.1,7l4.6-9.7l10.3,3.1l0.2-10.7l10.6-1.4l-4.1-9.9
		l9.2-5.6l-7.8-7.4l6.1-8.8l-10.1-3.5l2-10.5l-10.7,0.9L77.3,5l-9.4,5.2l-6.5-8.5l-6.5,8.5L45.5,5L43,15.5l-10.7-0.9l2,10.5
		l-10.1,3.5l6.1,8.8l-7.8,7.4l9.2,5.6l-4.1,9.9l10.6,1.4l0.2,10.7l10.3-3.1l4.6,9.7L61.4,72.1z"/>
</g>
<g>
	<path fill="#515E66" d="M74.8,42.9c-0.1,0-0.2,0-0.3-0.1c0,0-5-5.3-6.4-6.9c-1.5-1.6-4.4-3.4-6.1-3.5l-0.2,0
		c-0.9,0-2.3,0.2-3.6,0.4c-1.5,0.2-2.9,0.4-3.7,0.3c-0.3,0-1.2-0.1-1.4-0.8c-0.2-0.5,0.2-1.1,1.1-1.9l0.2-0.2c1.2-1,3.8-3.1,7.8-3.3
		c2.8-0.1,6,1.2,8.3,2.1c1.1,0.5,2.1,0.8,2.7,0.9c1.8,0.3,8.9-1.1,8.9-1.1c0.1,0,0.2,0,0.3,0.1c0.1,0.1,0.2,0.2,0.2,0.3l1.4,12.1
		c0,0.1,0,0.2-0.1,0.3c-0.1,0.1-0.2,0.1-0.3,0.1c-0.1,0-5.2,0-6.9,0.1c-1.4,0.1-1.7,0.7-1.7,0.7C75.2,42.8,75.1,42.9,74.8,42.9
		C74.9,42.9,74.9,42.9,74.8,42.9z M61.8,31.6l0.2,0c2.1,0.1,5.3,2.2,6.7,3.7c1.2,1.3,4.9,5.3,6.1,6.5c0.3-0.3,1-0.7,2.1-0.7
		C78.3,41,82,41,83.4,41L82,29.9c-1.6,0.3-7.1,1.3-8.8,1.1c-0.7-0.1-1.7-0.5-2.9-1c-2.2-0.9-5.4-2.1-8-2c-3.7,0.1-6,2.1-7.3,3.1
		l-0.2,0.2c-0.8,0.6-0.8,0.9-0.8,1c0,0,0,0,0,0c0,0,0.1,0.1,0.6,0.1c0.7,0.1,2.1-0.1,3.5-0.3C59.4,31.8,60.8,31.6,61.8,31.6z"/>
</g>
<g>
	<path fill="#515E66" d="M62.6,52.3c-0.4,0-0.7-0.1-0.9-0.2c-0.3-0.2-0.2-0.6-0.1-0.8c0.1-0.4,0.3-1.2-1.1-2.4
		c-1-0.9-1.9-0.4-1.9-0.4c-0.1,0.1-0.3,0.1-0.4,0c-0.1-0.1-0.2-0.2-0.2-0.4c0,0,0-0.9-0.7-1.5c-1-0.7-1.8-0.2-1.8-0.2
		c-0.1,0.1-0.3,0.1-0.4,0c-0.1,0-0.2-0.2-0.3-0.3c0,0-0.3-1-1.3-1.7c-0.9-0.6-1.9,0-1.9,0c-0.1,0.1-0.3,0.1-0.4,0
		c-0.1-0.1-0.2-0.2-0.2-0.3c0,0-0.2-1.3-1.7-1.6c-1.8-0.4-2.7,1-2.7,1c-0.1,0.1-0.2,0.2-0.4,0.2h-9.7c-0.1,0-0.2-0.1-0.3-0.2
		c-0.1-0.1-0.1-0.2-0.1-0.4c0.2-1.3,2.3-12.5,5.7-13.3c3.4-0.8,8.9,0.2,12.5,1.4c0.2,0.1,0.3,0.3,0.3,0.5s-0.3,0.3-0.5,0.3
		c-3.5-1.2-8.8-2.2-12-1.4c-2.4,0.6-4.3,8.5-5,12.1h8.9c0.5-0.7,1.7-1.6,3.4-1.2c1.4,0.3,1.9,1.2,2.2,1.8c0.5-0.2,1.5-0.4,2.4,0.2
		c0.8,0.6,1.2,1.3,1.5,1.8c0.5-0.2,1.4-0.2,2.3,0.5c0.6,0.5,0.9,1.1,1,1.6c0.6-0.1,1.5-0.1,2.4,0.7c1.8,1.6,1.5,2.7,1.3,3.3
		c0.4,0,1.2-0.1,1.8-0.5c0.5-0.3,0.3-1.3,0.3-1.6c0-0.2,0-0.4,0.2-0.5c0.2-0.1,0.4-0.1,0.5,0.1c0,0,0.9,0.8,1.7,0.3
		c0.9-0.5,0.6-1.6,0.6-1.6c0-0.2,0-0.4,0.2-0.5c0.1-0.1,0.3-0.1,0.5,0c0,0,0.8,0.5,1.7,0c0.8-0.4,0.6-2,0.6-2.1c0-0.2,0-0.4,0.2-0.5
		c0.2-0.1,0.4-0.1,0.5,0c0,0,1.1,0.9,2.4,0.1c1.2-0.9,0.5-2.7,0.5-2.7c-0.1-0.2,0-0.5,0.2-0.6c0.2-0.1,0.5,0,0.6,0.2
		c0.4,0.8,0.6,2.7-0.8,3.7c-1,0.7-1.9,0.6-2.6,0.3c0,0.7-0.2,1.7-1.1,2.1c-0.7,0.4-1.4,0.3-1.9,0.2c0,0.6-0.3,1.4-1.1,1.8
		c-0.7,0.4-1.4,0.3-1.9,0.1c0,0.6-0.1,1.2-0.7,1.6C64.1,52.1,63.2,52.3,62.6,52.3z"/>
</g>
<g>
	<path fill="#515E66" d="M64.9,50.1c-0.1,0-0.3-0.1-0.3-0.2l-3.2-4.5c-0.1-0.2-0.1-0.5,0.1-0.6c0.2-0.1,0.5-0.1,0.6,0.1l3.2,4.5
		c0.1,0.2,0.1,0.5-0.1,0.6C65.1,50.1,65,50.1,64.9,50.1z"/>
</g>
<g>
	<path fill="#515E66" d="M67.9,47.9c-0.1,0-0.2-0.1-0.3-0.2l-3.7-4.5c-0.2-0.2-0.1-0.5,0.1-0.6c0.2-0.1,0.5-0.1,0.6,0.1l3.7,4.5
		c0.2,0.2,0.1,0.5-0.1,0.6C68.1,47.9,68,47.9,67.9,47.9z"/>
</g>
<g>
	<path fill="#515E66" d="M70.8,45.5c-0.1,0-0.2,0-0.3-0.1l-4.9-5.6c-0.2-0.2-0.1-0.5,0-0.6s0.5-0.1,0.6,0l4.9,5.6
		c0.2,0.2,0.1,0.5,0,0.6C71,45.5,70.9,45.5,70.8,45.5z"/>
</g>
<g>
	<path fill="#515E66" d="M48.2,47.6c-0.1,0-0.3,0-0.4,0c-0.6-0.1-1.1-0.5-1.4-1c-0.3-0.5-0.4-1.2-0.2-1.8c0.3-1.3,1.5-2.1,2.6-1.9
		c1.2,0.3,1.9,1.5,1.6,2.8C50.2,46.8,49.2,47.6,48.2,47.6z M48.4,43.7c-0.6,0-1.2,0.5-1.4,1.2c-0.1,0.4,0,0.8,0.2,1.2
		c0.2,0.3,0.5,0.5,0.8,0.6c0.7,0.2,1.4-0.4,1.6-1.2c0.2-0.8-0.2-1.6-0.9-1.8C48.6,43.7,48.5,43.7,48.4,43.7z"/>
</g>
<g>
	<path fill="#515E66" d="M52,49.8c-0.2,0-0.3,0-0.4,0c-0.6-0.1-1.1-0.5-1.4-1.1c-0.3-0.6-0.4-1.2-0.3-1.9c0.3-1.3,1.6-2.2,2.8-2
		c1.2,0.3,2,1.6,1.7,2.9C54.1,49,53.1,49.8,52,49.8z M52.2,45.7c-0.7,0-1.3,0.5-1.4,1.3c-0.1,0.4,0,0.9,0.2,1.2
		c0.2,0.3,0.5,0.6,0.8,0.6c0.7,0.2,1.5-0.4,1.7-1.3c0.2-0.9-0.2-1.7-1-1.9C52.4,45.7,52.3,45.7,52.2,45.7z"/>
</g>
<g>
	<path fill="#515E66" d="M55.6,51.4c-0.1,0-0.3,0-0.4,0c-0.5-0.1-1-0.5-1.3-1c-0.3-0.5-0.3-1.1-0.2-1.6c0.3-1.2,1.4-2,2.4-1.7
		c0.5,0.1,1,0.5,1.3,1c0.3,0.5,0.3,1.1,0.2,1.6C57.4,50.6,56.5,51.4,55.6,51.4z M55.8,47.7c-0.6,0-1.1,0.5-1.3,1.1
		c-0.1,0.4,0,0.8,0.1,1.1c0.2,0.3,0.4,0.5,0.7,0.6c0.6,0.1,1.3-0.4,1.5-1.1c0.1-0.4,0-0.8-0.1-1.1c-0.2-0.3-0.4-0.5-0.7-0.6
		C55.9,47.7,55.8,47.7,55.8,47.7z"/>
</g>
<g>
	<path fill="#515E66" d="M59,53.2c-0.2,0-0.3,0-0.5-0.1c-1.2-0.3-2-1.4-1.7-2.5c0.2-1.1,1.4-1.8,2.6-1.5c0.6,0.1,1.1,0.5,1.4,0.9
		c0.3,0.5,0.5,1,0.3,1.6C60.9,52.5,60,53.2,59,53.2z M58.8,49.8c-0.6,0-1.2,0.4-1.3,1c-0.1,0.7,0.3,1.4,1.1,1.5
		c0.7,0.2,1.5-0.3,1.6-0.9c0.1-0.3,0-0.7-0.2-0.9c-0.2-0.3-0.5-0.5-0.9-0.6C59.1,49.8,59,49.8,58.8,49.8z"/>
</g>
<g>
	<path fill="#FFFFFF" d="M20,54.4c0,0,8.3,4.5,41.3,4.5s39.8-4.5,39.8-4.5v12.3c0,0-13,4.3-40.6,4.4C30.7,71.2,20,67.4,20,67.4V54.4
		z"/>
	<path fill="#515E66" d="M59.9,71.6c-29.2,0-39.7-3.6-40.1-3.8c-0.2-0.1-0.3-0.3-0.3-0.5v-13c0-0.2,0.1-0.3,0.2-0.4
		c0.2-0.1,0.3-0.1,0.5,0c0.1,0,8.7,4.4,41.1,4.4c32.5,0,39.5-4.4,39.6-4.4c0.2-0.1,0.4-0.1,0.5,0c0.2,0.1,0.3,0.3,0.3,0.4v12.3
		c0,0.2-0.1,0.4-0.3,0.5c-0.1,0-13.4,4.4-40.7,4.4L59.9,71.6z M20.5,67c2,0.6,13.3,3.6,39.4,3.6l0.7,0c24.8,0,37.9-3.6,40.1-4.3
		V55.2c-2.5,1.1-12,4.2-39.3,4.2c-27.9,0-38.2-3.2-40.8-4.2V67z"/>
</g>
<g>
	<g>
		<path fill="#515E66" d="M39.2,60.8l-0.1,1L36,61.5l-0.6,6.1l-1.2-0.1l0.7-7.1L39.2,60.8z"/>
	</g>
	<g>
		<path fill="#515E66" d="M44.2,68.3l-0.6-2l-2.7-0.2L40.1,68l-1.2-0.1l3.1-7l1.3,0.1l2.2,7.3L44.2,68.3z M43.4,65.2l-0.5-2
			c0-0.1-0.1-0.3-0.2-0.6c-0.1-0.3-0.1-0.5-0.1-0.6c-0.1,0.4-0.3,0.8-0.5,1.3l-0.8,1.8L43.4,65.2z"/>
	</g>
	<g>
		<path fill="#515E66" d="M52,63.6c0,0.7-0.3,1.3-0.8,1.7c-0.5,0.4-1.2,0.6-2.1,0.5l-0.7,0l-0.1,2.7l-1.2,0l0.2-7.1l2.1,0.1
			c0.9,0,1.6,0.2,2,0.6C51.8,62.3,52,62.9,52,63.6z M48.4,64.8l0.6,0c0.6,0,1-0.1,1.3-0.3c0.3-0.2,0.4-0.5,0.5-1
			c0-0.4-0.1-0.7-0.3-0.9c-0.2-0.2-0.6-0.3-1.2-0.3l-0.8,0L48.4,64.8z"/>
	</g>
	<g>
		<path fill="#515E66" d="M57.9,68.6l-0.7-2l-2.7,0l-0.7,2l-1.2,0l2.7-7.2l1.3,0l2.6,7.2L57.9,68.6z M56.9,65.6l-0.7-1.9
			c0-0.1-0.1-0.3-0.2-0.6s-0.1-0.5-0.2-0.6c-0.1,0.4-0.2,0.8-0.4,1.3l-0.7,1.9L56.9,65.6z"/>
	</g>
	<g>
		<path fill="#515E66" d="M66.4,68.5l-1.2,0l-0.1-3.2l-3.3,0.1l0.1,3.2l-1.2,0l-0.2-7.1l1.2,0l0.1,2.9l3.3-0.1l-0.1-2.9l1.2,0
			L66.4,68.5z"/>
	</g>
	<g>
		<path fill="#515E66" d="M71.4,68.2l-1.2,0.1L70,62.2l-2.1,0.1l0-1l5.4-0.3l0,1l-2.1,0.1L71.4,68.2z"/>
	</g>
	<g>
		<path fill="#515E66" d="M74.8,60.9l1.1-0.1l0.3,3.7c0,0.4,0,0.8,0.1,1.2c0,0.4,0,0.7,0,0.8l0,0l3.2-5.9l1.4-0.1l0.5,7.1l-1.1,0.1
			L80.1,64c0-0.6-0.1-1.2,0-2.1l0,0l-3.3,6L75.3,68L74.8,60.9z"/>
	</g>
	<g>
		<path fill="#515E66" d="M86,64.4l-1.5,3l-1.3,0.1l1.7-3.3c-0.9-0.2-1.5-0.9-1.5-1.9c-0.1-0.7,0.1-1.2,0.5-1.6
			c0.4-0.4,1.1-0.6,1.9-0.7l2.1-0.2l0.7,7.1l-1.2,0.1l-0.3-2.8L86,64.4z M86.8,61l-0.9,0.1c-0.5,0-0.9,0.2-1.1,0.4s-0.3,0.5-0.3,0.9
			c0,0.4,0.2,0.7,0.5,0.9s0.7,0.3,1.2,0.2l0.9-0.1L86.8,61z"/>
	</g>
</g>
</svg>
