<?xml version="1.0" encoding="utf-8"?>
<!-- Generator: Adobe Illustrator 18.1.0, SVG Export Plug-In . SVG Version: 6.00 Build 0)  -->
<svg version="1.1" id="Слой_1" xmlns="http://www.w3.org/2000/svg" xmlns:xlink="http://www.w3.org/1999/xlink" x="0px" y="0px"
	 viewBox="0 0 110.9 77.9" enable-background="new 0 0 110.9 77.9" xml:space="preserve">
<g>
	<path fill="#515E66" d="M55.2,60.7l-0.4-0.8c-0.4-0.7-10-18.1-10.9-23.2c-0.2-0.8-0.2-1.5-0.2-2.3c0-6.4,5.2-11.5,11.5-11.5
		c6.4,0,11.5,5.2,11.5,11.5c0,0.8-0.1,1.6-0.2,2.3C65.3,43.2,56,59.2,55.6,59.9L55.2,60.7z M55.2,23.9c-5.8,0-10.5,4.7-10.5,10.5
		c0,0.7,0.1,1.4,0.2,2.1c0.8,4.3,8.4,18.6,10.3,22.1c1.9-3.3,9.3-16.6,10.3-22.1c0.1-0.7,0.2-1.4,0.2-2.1
		C65.7,28.6,61,23.9,55.2,23.9z"/>
</g>
<g>
	<path fill="#515E66" d="M55,42.8c-4.5,0-8.2-3.7-8.2-8.2s3.7-8.2,8.2-8.2c4.5,0,8.2,3.7,8.2,8.2S59.5,42.8,55,42.8z M55,27.4
		c-4,0-7.2,3.2-7.2,7.2s3.2,7.2,7.2,7.2s7.2-3.2,7.2-7.2S59,27.4,55,27.4z"/>
</g>
<g>
	<path fill="#515E66" d="M36.2,37.8L35.8,37c-0.4-0.7-10-18.1-10.9-23.2c-0.2-0.7-0.2-1.5-0.2-2.3C24.7,5.2,29.9,0,36.2,0
		c6.4,0,11.5,5.2,11.5,11.5c0,0.8-0.1,1.6-0.2,2.3C46.4,20.3,37.1,36.3,36.7,37L36.2,37.8z M36.2,1c-5.8,0-10.5,4.7-10.5,10.5
		c0,0.7,0.1,1.4,0.2,2.1c0.8,4.3,8.4,18.6,10.3,22.1c1.9-3.3,9.3-16.6,10.3-22.1c0.1-0.7,0.2-1.4,0.2-2.1C46.8,5.7,42,1,36.2,1z"/>
</g>
<g>
	<path fill="#515E66" d="M36,19.9c-4.5,0-8.2-3.7-8.2-8.2s3.7-8.2,8.2-8.2s8.2,3.7,8.2,8.2S40.6,19.9,36,19.9z M36,4.5
		c-4,0-7.2,3.2-7.2,7.2s3.2,7.2,7.2,7.2s7.2-3.2,7.2-7.2S40,4.5,36,4.5z"/>
</g>
<g>
	<path fill="#515E66" d="M89.6,46.1l-0.4-0.8c-0.4-0.7-10-18.1-10.9-23.2c-0.2-0.7-0.2-1.5-0.2-2.3c0-6.4,5.2-11.5,11.5-11.5
		s11.5,5.2,11.5,11.5c0,0.8-0.1,1.6-0.2,2.3c-1.1,6.4-10.5,22.5-10.9,23.2L89.6,46.1z M89.7,9.3c-5.8,0-10.5,4.7-10.5,10.5
		c0,0.7,0.1,1.4,0.2,2.1c0.8,4.3,8.4,18.6,10.3,22.1c1.9-3.3,9.3-16.6,10.3-22.1c0.1-0.7,0.2-1.4,0.2-2.1
		C100.2,14,95.5,9.3,89.7,9.3z"/>
</g>
<g>
	<path fill="#515E66" d="M89.4,28.2c-4.5,0-8.2-3.7-8.2-8.2s3.7-8.2,8.2-8.2s8.2,3.7,8.2,8.2S94,28.2,89.4,28.2z M89.4,12.8
		c-4,0-7.2,3.2-7.2,7.2s3.2,7.2,7.2,7.2s7.2-3.2,7.2-7.2S93.4,12.8,89.4,12.8z"/>
</g>
<g>
	<polygon fill="#515E66" points="41.3,71.9 8.7,55.5 33.3,31.6 34,32.3 10.4,55.3 41.3,70.8 72.8,55.1 73,55.2 102,66.3 92.5,39.2 
		93.5,38.9 103.7,68 72.9,56.2 	"/>
</g>
<g>
	<polygon fill="#515E66" points="85.1,37.2 73.6,33.7 66.2,37.1 65.8,36.2 73.6,32.6 85.4,36.3 	"/>
</g>
<g>
	
		<rect x="37.9" y="34.5" transform="matrix(0.8833 0.4688 -0.4688 0.8833 21.2521 -15.2869)" fill="#515E66" width="6.9" height="1"/>
</g>
<g>
	<polygon fill="#515E66" points="40.1,77.9 0,56.5 30.7,26.6 31.4,27.3 1.7,56.3 40.1,76.8 72.1,61.3 72.3,61.4 109.3,74.6 
		96.8,37.1 94.4,36.3 94.7,35.3 97.6,36.3 110.9,76.2 72.1,62.4 	"/>
</g>
<g>
	<polygon fill="#515E66" points="66.2,32.7 65.8,31.8 73.7,27.9 83.1,31.5 82.7,32.4 73.8,29 	"/>
</g>
<g>
	<rect x="39.6" y="30.8" transform="matrix(0.9258 0.378 -0.378 0.9258 14.9458 -13.5907)" fill="#515E66" width="4.9" height="1"/>
</g>
<g>
	
		<rect x="72.4" y="28.5" transform="matrix(0.9987 5.081489e-002 -5.081489e-002 0.9987 2.3901 -3.6471)" fill="#515E66" width="1" height="33.5"/>
</g>
<g>
	
		<rect x="43.8" y="46.3" transform="matrix(0.9641 0.2657 -0.2657 0.9641 18.0954 -9.5402)" fill="#515E66" width="1" height="31.7"/>
</g>
</svg>
